<svg width="128" height="100" viewBox="0 0 128 100" fill="none" xmlns="http://www.w3.org/2000/svg">
<mask id="path-1-inside-1_480_6338" fill="white">
<path d="M58.8034 73.8509C58.9522 77.3975 58.3331 80.9341 56.9902 84.2089C55.6472 87.4836 53.6135 90.4161 51.0336 92.7977L51.0132 92.8143C45.6716 97.6472 38.7152 100.202 31.5805 99.9516H31.6254C27.3129 100.19 23.002 99.4556 18.9988 97.8018C14.9956 96.1479 11.3985 93.6149 8.46287 90.3825L8.44655 90.3658C2.5612 83.2393 -0.44064 74.0915 0.052379 64.7856L0.0482983 64.873C-0.225207 55.2088 1.53509 45.5971 5.21049 36.686L5.04726 37.1316C7.9818 30.1448 12.0534 23.7149 17.0896 18.114L17.0448 18.1639C21.2055 13.558 26.0266 9.62259 31.3438 6.49188L31.6376 6.33364C35.6592 3.96627 39.8562 1.92377 44.1901 0.224863L44.8267 0.00416413L57.6159 22.0324C52.3014 24.2205 47.6365 27.7824 44.0799 32.3678L44.0269 32.4386C40.4856 36.7431 38.2644 42.0161 37.6405 47.6002L37.6282 47.7334C40.4112 47.8046 43.1479 48.4749 45.6593 49.7006C48.1706 50.9263 50.3998 52.6797 52.2007 54.8458L52.2252 54.8749C56.8042 60.0776 59.173 66.9218 58.8116 73.905L58.8156 73.8425L58.8034 73.8509ZM127.965 73.8509C128.112 77.3983 127.491 80.9354 126.148 84.2107C124.804 87.486 122.77 90.4191 120.191 92.8018L120.17 92.8185C114.83 97.6532 107.873 100.209 100.738 99.9558H100.782C96.4698 100.195 92.1585 99.4614 88.1552 97.8075C84.1518 96.1536 80.5548 93.6199 77.6199 90.3866L77.6036 90.3658C71.7158 83.2391 68.7137 74.089 69.2094 64.7814L69.2053 64.8688C68.9318 55.2047 70.6921 45.593 74.3675 36.6818L74.2043 37.1274C77.1375 30.1419 81.2061 23.7122 86.2385 18.1098L86.1936 18.1598C90.3558 13.5538 95.1783 9.61834 100.497 6.48772L100.791 6.32948C104.811 3.96043 109.008 1.91787 113.343 0.220699L113.98 0L126.765 22.0283C121.45 24.219 116.785 27.7837 113.229 32.372L113.176 32.4427C109.634 36.7472 107.413 42.0203 106.789 47.6043L106.777 47.7376C109.559 47.8083 112.295 48.4785 114.805 49.7043C117.315 50.9301 119.542 52.6836 121.341 54.8499L121.366 54.8791C125.95 60.0778 128.323 66.9212 127.965 73.905L127.969 73.8425L127.965 73.8509Z"/>
</mask>
<path d="M58.8034 73.8509L57.1171 71.3696L55.7361 72.3082L55.806 73.9766L58.8034 73.8509ZM51.0336 92.7977L52.9304 95.1219L53.0013 95.0641L53.0685 95.002L51.0336 92.7977ZM51.0132 92.8143L49.1164 90.4901L49.0571 90.5384L49.0004 90.5897L51.0132 92.8143ZM31.5805 99.9516V96.9516L31.4752 102.95L31.5805 99.9516ZM31.6254 99.9516L31.7907 102.947L31.6254 96.9516V99.9516ZM8.46287 90.3825L10.6837 88.3655L10.6455 88.3234L10.6056 88.2828L8.46287 90.3825ZM8.44655 90.3658L6.13338 92.2761L6.21455 92.3744L6.30378 92.4655L8.44655 90.3658ZM0.052379 64.7856L3.04912 64.9254L-2.94342 64.6268L0.052379 64.7856ZM0.0482983 64.873L-2.9505 64.9579L3.04504 65.0129L0.0482983 64.873ZM5.21049 36.686L8.0274 37.718L2.43712 35.5421L5.21049 36.686ZM5.04726 37.1316L2.23034 36.0996L7.81319 38.2933L5.04726 37.1316ZM17.0896 18.114L19.3214 20.1188L14.8589 16.1081L17.0896 18.114ZM17.0448 18.1639L14.813 16.1591L19.2709 20.1749L17.0448 18.1639ZM31.3438 6.49188L29.9213 3.85057L29.871 3.87769L29.8217 3.9067L31.3438 6.49188ZM31.6376 6.33364L33.0601 8.97495L33.1104 8.9479L33.1595 8.91895L31.6376 6.33364ZM44.1901 0.224863L43.2075 -2.60963L43.1509 -2.59004L43.0952 -2.56821L44.1901 0.224863ZM44.8267 0.00416413L47.4212 -1.50212L46.1799 -3.64012L43.8441 -2.83033L44.8267 0.00416413ZM57.6159 22.0324L58.758 24.8065L61.9358 23.4982L60.2103 20.5261L57.6159 22.0324ZM44.0799 32.3678L41.7094 30.5292L41.6942 30.5488L41.6792 30.5687L44.0799 32.3678ZM44.0269 32.4386L46.3436 34.3446L46.3868 34.292L46.4276 34.2376L44.0269 32.4386ZM37.6405 47.6002L34.659 47.267L34.6557 47.2964L34.653 47.3258L37.6405 47.6002ZM37.6282 47.7334L34.6408 47.4591L34.3477 50.6506L37.5516 50.7325L37.6282 47.7334ZM52.2007 54.8458L49.8939 56.7637L49.8987 56.7696L49.9036 56.7754L52.2007 54.8458ZM52.2252 54.8749L49.9281 56.8046L49.9504 56.831L49.9732 56.857L52.2252 54.8749ZM58.8116 73.905L55.8156 73.7499L61.8052 74.1005L58.8116 73.905ZM58.8156 73.8425L61.8093 74.038L62.2095 67.9088L57.1294 71.3613L58.8156 73.8425ZM127.965 73.8509L125.273 72.5268L124.935 73.2121L124.967 73.9752L127.965 73.8509ZM120.191 92.8018L122.087 95.1261L122.159 95.068L122.226 95.0057L120.191 92.8018ZM120.17 92.8185L118.273 90.4942L118.214 90.5429L118.157 90.5945L120.17 92.8185ZM100.738 99.9558V96.9558L100.631 102.954L100.738 99.9558ZM100.782 99.9558L100.949 102.951L100.782 96.9558V99.9558ZM77.6199 90.3866L75.2589 92.2375L75.3258 92.3228L75.3986 92.403L77.6199 90.3866ZM77.6036 90.3658L79.9645 88.5149L79.9408 88.4847L79.9164 88.4551L77.6036 90.3658ZM69.2094 64.7814L72.2061 64.9216L66.2137 64.6218L69.2094 64.7814ZM69.2053 64.8688L66.2065 64.9537L72.202 65.0091L69.2053 64.8688ZM74.3675 36.6818L77.1844 37.7138L71.5942 35.538L74.3675 36.6818ZM74.2043 37.1274L71.3874 36.0954L76.9703 38.2888L74.2043 37.1274ZM86.2385 18.1098L88.4703 20.1145L84.0067 16.1051L86.2385 18.1098ZM86.1936 18.1598L83.9618 16.155L88.4195 20.1711L86.1936 18.1598ZM100.497 6.48772L99.0742 3.84643L99.0241 3.87345L98.9749 3.90236L100.497 6.48772ZM100.791 6.32948L102.213 8.97077L102.264 8.94344L102.314 8.91417L100.791 6.32948ZM113.343 0.220699L112.36 -2.6138L112.304 -2.5944L112.249 -2.57281L113.343 0.220699ZM113.98 0L116.574 -1.50592L115.333 -3.6444L112.997 -2.8345L113.98 0ZM126.765 22.0283L127.908 24.8019L131.084 23.493L129.359 20.5223L126.765 22.0283ZM113.229 32.372L110.858 30.5343L110.843 30.5535L110.828 30.573L113.229 32.372ZM113.176 32.4427L115.492 34.3487L115.536 34.2962L115.577 34.2417L113.176 32.4427ZM106.789 47.6043L103.808 47.2712L103.805 47.3004L103.802 47.3298L106.789 47.6043ZM106.777 47.7376L103.79 47.463L103.496 50.6552L106.701 50.7366L106.777 47.7376ZM121.341 54.8499L119.033 56.7666L119.039 56.7733L119.045 56.7799L121.341 54.8499ZM121.366 54.8791L119.069 56.8091L119.092 56.8364L119.116 56.8632L121.366 54.8791ZM127.965 73.905L124.968 73.751L130.958 74.1011L127.965 73.905ZM127.969 73.8425L130.962 74.0387L125.277 72.5185L127.969 73.8425ZM55.806 73.9766C55.9367 77.0922 55.3927 80.1975 54.2145 83.0706L59.7658 85.3471C61.2735 81.6707 61.9676 77.7029 61.8008 73.7251L55.806 73.9766ZM54.2145 83.0706C53.0363 85.9436 51.2541 88.5113 48.9987 90.5933L53.0685 95.002C55.9728 92.321 58.2581 89.0237 59.7658 85.3471L54.2145 83.0706ZM49.1368 90.4734L49.1164 90.4901L52.91 95.1386L52.9304 95.1219L49.1368 90.4734ZM49.0004 90.5897C44.2316 94.9044 38.0329 97.1764 31.6858 96.9535L31.4752 102.95C39.3974 103.228 47.1117 100.39 53.0259 95.0389L49.0004 90.5897ZM31.5805 102.952H31.6254V96.9516H31.5805V102.952ZM31.4601 96.9562C27.597 97.1694 23.7339 96.512 20.1443 95.0291L17.8533 100.574C22.27 102.399 27.0288 103.21 31.7907 102.947L31.4601 96.9562ZM20.1443 95.0291C16.5545 93.546 13.3236 91.2724 10.6837 88.3655L6.24205 92.3994C9.47333 95.9573 13.4368 98.7499 17.8533 100.574L20.1443 95.0291ZM10.6056 88.2828L10.5893 88.2662L6.30378 92.4655L6.3201 92.4821L10.6056 88.2828ZM10.7597 88.4555C5.35754 81.914 2.59457 73.5063 3.04818 64.9443L-2.94342 64.6268C-3.47585 74.6768 -0.23513 84.5645 6.13338 92.2761L10.7597 88.4555ZM-2.94436 64.6457L-2.94844 64.7332L3.04504 65.0129L3.04912 64.9254L-2.94436 64.6457ZM3.0471 64.7881C2.78547 55.5435 4.46948 46.3506 7.98385 37.8299L2.43712 35.5421C-1.39931 44.8437 -3.23588 54.8741 -2.9505 64.9579L3.0471 64.7881ZM2.39357 35.654L2.23034 36.0996L7.86417 38.1635L8.0274 37.718L2.39357 35.654ZM7.81319 38.2933C10.6186 31.614 14.5099 25.4698 19.3204 20.1199L14.8589 16.1081C9.59686 21.9601 5.34499 28.6757 2.28133 35.9698L7.81319 38.2933ZM14.8579 16.1091L14.813 16.1591L19.2765 20.1688L19.3214 20.1188L14.8579 16.1091ZM19.2709 20.1749C23.2287 15.7937 27.8128 12.0523 32.8659 9.07706L29.8217 3.9067C24.2405 7.19288 19.1822 11.3224 14.8186 16.1529L19.2709 20.1749ZM32.7663 9.13319L33.0601 8.97495L30.2151 3.69233L29.9213 3.85057L32.7663 9.13319ZM33.1595 8.91895C37.0448 6.6318 41.099 4.65883 45.285 3.01793L43.0952 -2.56821C38.6133 -0.811299 34.2736 1.30073 30.1157 3.74834L33.1595 8.91895ZM45.1728 3.05936L45.8094 2.83866L43.8441 -2.83033L43.2075 -2.60963L45.1728 3.05936ZM42.2323 1.51045L55.0215 23.5387L60.2103 20.5261L47.4212 -1.50212L42.2323 1.51045ZM56.4738 19.2583C50.6703 21.6477 45.5835 25.5343 41.7094 30.5292L46.4505 34.2064C49.6894 30.0304 53.9325 26.7932 58.758 24.8065L56.4738 19.2583ZM41.6792 30.5687L41.6262 30.6395L46.4276 34.2376L46.4807 34.1668L41.6792 30.5687ZM41.7102 30.5326C37.7965 35.2897 35.347 41.1103 34.659 47.267L40.6219 47.9333C41.1819 42.9219 43.1747 38.1964 46.3436 34.3446L41.7102 30.5326ZM34.653 47.3258L34.6408 47.4591L40.6157 48.0078L40.6279 47.8745L34.653 47.3258ZM37.5516 50.7325C39.9028 50.7925 42.2171 51.3589 44.3434 52.3966L46.9751 47.0046C44.0787 45.591 40.9195 44.8166 37.7049 44.7344L37.5516 50.7325ZM44.3434 52.3966C46.4699 53.4345 48.3622 54.9215 49.8939 56.7637L54.5075 52.9278C52.4373 50.4379 49.8713 48.4181 46.9751 47.0046L44.3434 52.3966ZM49.9036 56.7754L49.9281 56.8046L54.5222 52.9453L54.4978 52.9161L49.9036 56.7754ZM49.9732 56.857C54.0296 61.4659 56.137 67.5411 55.8156 73.7499L61.8076 74.0601C62.2091 66.3025 59.5788 58.6894 54.4772 52.8929L49.9732 56.857ZM61.8052 74.1005L61.8093 74.038L55.822 73.6471L55.8179 73.7095L61.8052 74.1005ZM57.1294 71.3613L57.1171 71.3696L60.4897 76.3321L60.5019 76.3238L57.1294 71.3613ZM124.967 73.9752C125.096 77.092 124.551 80.1981 123.372 83.0721L128.923 85.3492C130.432 81.6727 131.127 77.7047 130.962 73.7265L124.967 73.9752ZM123.372 83.0721C122.193 85.946 120.411 88.5147 118.155 90.598L122.226 95.0057C125.13 92.3236 127.415 89.026 128.923 85.3492L123.372 83.0721ZM118.294 90.4776L118.273 90.4942L122.067 95.1427L122.087 95.1261L118.294 90.4776ZM118.157 90.5945C113.389 94.9105 107.191 97.1825 100.844 96.9577L100.631 102.954C108.555 103.235 116.27 100.396 122.184 95.0425L118.157 90.5945ZM100.738 102.956H100.782V96.9558H100.738V102.956ZM100.616 96.9604C96.7534 97.1746 92.8902 96.5178 89.3007 95.0348L87.0097 100.58C91.4268 102.405 96.1862 103.215 100.949 102.951L100.616 96.9604ZM89.3007 95.0348C85.7109 93.5518 82.4804 91.2778 79.8412 88.3703L75.3986 92.403C78.6292 95.9621 82.5928 98.7555 87.0097 100.58L89.3007 95.0348ZM79.9809 88.5357L79.9645 88.5149L75.2426 92.2167L75.2589 92.2375L79.9809 88.5357ZM79.9164 88.4551C74.5122 81.9137 71.7491 73.5041 72.2052 64.941L66.2137 64.6218C65.6783 74.6739 68.9194 84.5644 75.2908 92.2765L79.9164 88.4551ZM66.2127 64.6412L66.2086 64.7286L72.202 65.0091L72.2061 64.9216L66.2127 64.6412ZM72.2041 64.784C71.9425 55.5394 73.6265 46.3464 77.1409 37.8257L71.5942 35.538C67.7577 44.8395 65.9211 54.87 66.2065 64.9537L72.2041 64.784ZM71.5506 35.6499L71.3874 36.0954L77.0212 38.1594L77.1844 37.7138L71.5506 35.6499ZM76.9703 38.2888C79.7746 31.6103 83.6632 25.4661 88.4703 20.1146L84.0067 16.1051C78.749 21.9583 74.5003 28.6734 71.4382 35.966L76.9703 38.2888ZM84.0067 16.1051L83.9618 16.155L88.4254 20.1645L88.4703 20.1145L84.0067 16.1051ZM88.4195 20.1711C92.3787 15.7897 96.9642 12.0483 102.019 9.07307L98.9749 3.90236C93.3925 7.1884 88.3329 11.3178 83.9678 16.1484L88.4195 20.1711ZM101.919 9.129L102.213 8.97077L99.368 3.68819L99.0742 3.84643L101.919 9.129ZM102.314 8.91417C106.197 6.62582 110.251 4.65314 114.437 3.01421L112.249 -2.57281C107.766 -0.817402 103.425 1.29505 99.2676 3.74479L102.314 8.91417ZM114.326 3.0552L114.962 2.8345L112.997 -2.8345L112.36 -2.6138L114.326 3.0552ZM111.385 1.50592L124.17 23.5342L129.359 20.5223L116.574 -1.50592L111.385 1.50592ZM125.622 19.2546C119.817 21.6468 114.731 25.5365 110.858 30.5343L115.6 34.2096C118.838 30.031 123.082 26.7911 127.908 24.8019L125.622 19.2546ZM110.828 30.573L110.775 30.6438L115.577 34.2417L115.63 34.1709L110.828 30.573ZM110.859 30.5368C106.945 35.2939 104.496 41.1145 103.808 47.2712L109.771 47.9375C110.331 42.9261 112.324 38.2006 115.492 34.3487L110.859 30.5368ZM103.802 47.3298L103.79 47.463L109.764 48.0122L109.777 47.8789L103.802 47.3298ZM106.701 50.7366C109.051 50.7964 111.364 51.3625 113.488 52.4L116.121 47.0086C113.226 45.5946 110.067 44.8203 106.853 44.7386L106.701 50.7366ZM113.488 52.4C115.613 53.4377 117.504 54.9246 119.033 56.7666L123.649 52.9333C121.581 50.4427 119.016 48.4224 116.121 47.0086L113.488 52.4ZM119.045 56.7799L119.069 56.8091L123.663 52.9491L123.638 52.9199L119.045 56.7799ZM119.116 56.8632C123.176 61.4682 125.287 67.5422 124.968 73.751L130.961 74.0589C131.359 66.3002 128.724 58.6875 123.616 52.895L119.116 56.8632ZM130.958 74.1011L130.962 74.0387L124.975 73.6464L124.971 73.7089L130.958 74.1011ZM125.277 72.5185L125.273 72.5268L130.657 75.1749L130.661 75.1666L125.277 72.5185Z" fill="#AACCF1" mask="url(#path-1-inside-1_480_6338)"/>
</svg>
