<svg width="263" height="43" viewBox="0 0 263 43" fill="none" xmlns="http://www.w3.org/2000/svg">
<path d="M51.9521 2.08643V34.4618H57.5845V6.46526H67.6389V34.4618H73.2712V2.08643H51.9521Z" fill="black"/>
<path d="M83.0285 11.0304H77.9082V41.2164H83.4474V31.7134C84.8438 33.8097 86.892 34.9277 89.2659 34.9277C94.6655 34.9277 98.3893 30.5954 98.3893 22.7228C98.3893 14.8968 94.7586 10.5646 89.5452 10.5646C86.9385 10.5646 84.7973 11.7758 83.3078 14.0583L83.0285 11.0304ZM87.8695 30.5488C84.9369 30.5488 83.4474 28.1731 83.4474 22.7694C83.4474 17.3192 85.03 14.9434 88.1488 14.9434C91.1744 14.9434 92.6639 17.3192 92.6639 22.7228C92.6639 28.1731 91.0813 30.5488 87.8695 30.5488Z" fill="black"/>
<path d="M119.366 18.4838C119.366 12.8006 116.48 10.6578 110.615 10.6578C106.938 10.6578 104.052 11.8223 102.376 12.8006V17.4123C103.866 16.2943 107.124 15.0832 109.963 15.0832C112.617 15.0832 113.827 16.0148 113.827 18.5303V19.8347H112.943C104.471 19.8347 100.7 22.6297 100.7 27.3812C100.7 32.1327 103.586 34.7879 107.869 34.7879C111.127 34.7879 112.524 33.7165 113.594 32.5985H113.827C113.873 33.2041 114.06 33.996 114.246 34.4618H119.645C119.459 32.5519 119.366 30.642 119.366 28.7321V18.4838ZM113.827 28.8718C113.129 29.8967 111.825 30.7352 109.87 30.7352C107.543 30.7352 106.379 29.4308 106.379 27.4278C106.379 24.7725 108.288 23.7943 113.036 23.7943H113.827V28.8718Z" fill="black"/>
<path d="M137.552 34.4618H143.836L134.945 22.0241L142.765 11.0304H137.179L129.359 22.0241V11.0304H123.82V34.4618H129.359V23.1421L137.552 34.4618Z" fill="black"/>
<path d="M162.406 15.4093V11.0304H143.834V15.4093H150.35V34.4618H155.89V15.4093H162.406Z" fill="black"/>
<path d="M165.686 11.0304V34.4618H170.62L179.092 19.9744V34.4618H184.445V11.0304H179.511L171.039 25.5178V11.0304H165.686Z" fill="black"/>
<path d="M202.828 34.4618H209.112L200.221 22.0241L208.041 11.0304H202.456L194.636 22.0241V11.0304H189.096V34.4618H194.636V23.1421L202.828 34.4618Z" fill="black"/>
<path d="M213.986 41.6823C219.153 41.6823 221.061 38.0022 222.644 33.2041L229.952 11.0304H224.599L219.432 28.6389L214.265 11.0304H208.447L216.499 35.4867C215.894 36.6047 215.01 37.3034 213.474 37.3034C212.45 37.3034 211.565 36.9773 210.96 36.3718V40.8903C210.96 40.8903 211.798 41.6823 213.986 41.6823Z" fill="black"/>
<path d="M252.022 34.4618H257.422L257.329 11.0304H249.742L244.668 26.6358L240.106 11.0304H232.053V34.4618H236.755V16.9465L241.828 34.4618H246.344L252.022 16.9465V34.4618Z" fill="black"/>
<path fill-rule="evenodd" clip-rule="evenodd" d="M21.4837 43C33.3489 43 42.9675 33.3741 42.9675 21.5C42.9675 9.62588 33.3489 0 21.4837 0C9.6186 0 0 9.62588 0 21.5C0 33.3741 9.6186 43 21.4837 43ZM22.2648 12.4939H24.1836V33.8221H28.478V9.1564H22.2419C15.9603 9.1564 12.6481 12.4025 12.6481 17.1573C12.6481 20.9521 14.4526 23.1923 17.6734 25.5012L12.077 33.845H16.7369L22.9729 24.5182L20.8029 23.0552C18.176 21.2721 16.8968 19.8777 16.8968 16.9059C16.8968 14.277 18.747 12.4939 22.2648 12.4939Z" fill="black"/>
</svg>
