<svg width="47" height="92" viewBox="0 0 47 92" fill="none" xmlns="http://www.w3.org/2000/svg">
<path d="M46.56 24.568C46.56 27.5547 46.1333 30.2 45.28 32.504C44.512 34.808 43.4453 36.9413 42.08 38.904C40.7147 40.7813 39.0933 42.5307 37.216 44.152C35.424 45.688 33.5467 47.224 31.584 48.76C29.536 50.296 27.7013 51.704 26.08 52.984C24.544 54.1787 23.2213 55.416 22.112 56.696C21.088 57.976 20.2773 59.3413 19.68 60.792C19.168 62.2427 18.912 63.9067 18.912 65.784V67.32H10.08V65.144C10.08 62.4987 10.3787 60.1947 10.976 58.232C11.5733 56.184 12.512 54.264 13.792 52.472C15.072 50.68 16.6933 48.9307 18.656 47.224C20.6187 45.5173 22.9227 43.6827 25.568 41.72C28.7253 39.3307 31.1573 36.856 32.864 34.296C34.5707 31.6507 35.424 28.4507 35.424 24.696C35.424 22.904 35.2107 21.1547 34.784 19.448C34.3573 17.7413 33.504 16.2053 32.224 14.84C31.0293 13.3893 29.28 12.2373 26.976 11.384C24.7573 10.5307 21.8133 10.104 18.144 10.104C15.328 10.104 12.8107 10.36 10.592 10.872C8.37333 11.384 6.496 11.9387 4.96 12.536C3.168 13.2187 1.58933 13.9867 0.224 14.84V5.62399C1.58933 4.77066 3.25333 4.00266 5.216 3.31999C6.92267 2.72266 8.928 2.168 11.232 1.656C13.6213 1.14399 16.4373 0.887993 19.68 0.887993C24.3733 0.887993 28.4267 1.52799 31.84 2.808C35.2533 4.00267 38.0267 5.70933 40.16 7.92799C42.3787 10.0613 44 12.5787 45.024 15.48C46.048 18.296 46.56 21.3253 46.56 24.568ZM15.456 91.768C13.3227 91.768 11.5733 91.0853 10.208 89.72C8.84267 88.2693 8.16 86.5627 8.16 84.6C8.16 82.552 8.84267 80.8453 10.208 79.48C11.5733 78.0293 13.3227 77.304 15.456 77.304C17.5893 77.304 19.3387 78.0293 20.704 79.48C22.0693 80.8453 22.752 82.552 22.752 84.6C22.752 86.5627 22.0693 88.2693 20.704 89.72C19.3387 91.0853 17.5893 91.768 15.456 91.768Z" fill="black"/>
</svg>
