<svg width="65" height="65" viewBox="0 0 65 65" fill="none" xmlns="http://www.w3.org/2000/svg">
<path d="M16.6667 20H15.6667V21V29.6667H7H6V30.6667V40.3333V41.3333H7H15.6667V50V51H16.6667H26.3333H27.3333V50V41.3333H36H37V40.3333V30.6667V29.6667H36H27.3333V21V20H26.3333H16.6667Z" stroke="#DD7EB1" stroke-width="2"/>
<path d="M38.3333 9H37.3333V10V13.3333H34H33V14.3333V18.6667V19.6667H34H37.3333V23V24H38.3333H42.6667H43.6667V23V19.6667H47H48V18.6667V14.3333V13.3333H47H43.6667V10V9H42.6667H38.3333Z" stroke="#DD7EB1" stroke-width="2"/>
<path d="M42 30H41V31V38H34H33V39V47V48H34H41V55V56H42H50H51V55V48H58H59V47V39V38H58H51V31V30H50H42Z" stroke="#DD7EB1" stroke-width="2"/>
</svg>
