<svg width="333" height="163" viewBox="0 0 333 163" fill="none" xmlns="http://www.w3.org/2000/svg">
<path d="M6.82221 93.8354C32.681 73.5782 60.9376 58.0047 90.7535 43.899C112.569 33.5781 135.827 28.777 155.158 46.6005C164.716 55.4129 173.949 71.1008 174.221 84.5067C174.773 111.689 155.982 134.774 130.528 142.319C112.646 147.62 89.2855 141.611 87.9085 120.15C86.2679 94.5833 121.696 70.4154 140.905 60.4904C172.737 44.0429 214.294 34.3596 249.864 42.3888C272.27 47.4464 298.226 65.3918 314.322 81.9346C319.244 86.9933 323.777 92.401 327.729 98.2739" stroke="#AACCF1" stroke-width="5" stroke-linecap="round"/>
<path d="M315.916 63.0898C316.044 62.5565 316.223 63.0007 316.366 63.3202C317.607 66.0789 318.593 68.9816 319.615 71.8269C321.749 77.7712 323.355 83.8681 325.225 89.8967C325.874 91.9896 326.493 94.0578 327.408 96.0364C327.812 96.9105 328.193 97.8336 328.457 98.7602C328.869 100.209 329.248 101.67 329.662 103.121C329.779 103.528 329.884 103.335 329.676 102.973C329.472 102.616 328.952 102.383 328.615 102.187C327.626 101.612 326.76 100.844 325.872 100.125C320.89 96.0911 313.795 95.3986 308.024 93.0665C304.269 91.5489 300.431 90.2419 296.605 88.9395C295.374 88.5207 293.908 87.8338 292.858 87.5183" stroke="#AACCF1" stroke-width="5" stroke-linecap="round"/>
</svg>
