<svg width="101" height="100" viewBox="0 0 101 100" fill="none" xmlns="http://www.w3.org/2000/svg">
<path d="M47.2994 28.2087V64.0502L31.5414 48.3916C30.282 47.1402 28.2154 47.1402 26.9561 48.3916C26.6567 48.6885 26.4192 49.0411 26.2572 49.4292C26.0951 49.8174 26.0117 50.2335 26.0117 50.6538C26.0117 51.074 26.0951 51.4901 26.2572 51.8783C26.4192 52.2665 26.6567 52.6191 26.9561 52.9159L48.2359 74.0614C49.4952 75.3129 51.5296 75.3129 52.7889 74.0614L74.0688 52.9159C74.3677 52.6189 74.6049 52.2662 74.7667 51.878C74.9284 51.4899 75.0117 51.0739 75.0117 50.6538C75.0117 50.2337 74.9284 49.8176 74.7667 49.4295C74.6049 49.0414 74.3677 48.6887 74.0688 48.3916C73.7698 48.0946 73.4149 47.8589 73.0243 47.6981C72.6337 47.5374 72.215 47.4546 71.7922 47.4546C71.3694 47.4546 70.9508 47.5374 70.5602 47.6981C70.1696 47.8589 69.8147 48.0946 69.5157 48.3916L53.7577 64.0502V28.2087C53.7577 26.4439 52.3046 25 50.5285 25C48.7525 25 47.2994 26.4439 47.2994 28.2087Z" fill="#393939"/>
</svg>
