<svg width="146" height="23" viewBox="0 0 146 23" fill="none" xmlns="http://www.w3.org/2000/svg">
<path d="M28.8389 1.11621V18.4333H31.9656V3.45838H37.5471V18.4333H40.6738V1.11621H28.8389Z" fill="black"/>
<path d="M46.0904 5.90021H43.2479V22.0462H46.3229V16.9632C47.0981 18.0845 48.2351 18.6825 49.553 18.6825C52.5505 18.6825 54.6177 16.3652 54.6177 12.1543C54.6177 7.96829 52.6021 5.65104 49.708 5.65104C48.261 5.65104 47.0723 6.29888 46.2454 7.51979L46.0904 5.90021ZM48.7778 16.3403C47.1498 16.3403 46.3229 15.0695 46.3229 12.1792C46.3229 9.26396 47.2015 7.99321 48.9328 7.99321C50.6124 7.99321 51.4393 9.26396 51.4393 12.1543C51.4393 15.0695 50.5607 16.3403 48.7778 16.3403Z" fill="black"/>
<path d="M66.2626 9.88688C66.2626 6.84704 64.6605 5.70088 61.4046 5.70088C59.3632 5.70088 57.7611 6.32379 56.8309 6.84704V9.31379C57.6578 8.7158 59.4666 8.06796 61.0429 8.06796C62.5158 8.06796 63.1876 8.56629 63.1876 9.9118V10.6095H62.6966C57.9937 10.6095 55.9006 12.1045 55.9006 14.646C55.9006 17.1875 57.5027 18.6077 59.88 18.6077C61.6889 18.6077 62.4641 18.0346 63.0584 17.4366H63.1876C63.2135 17.7605 63.3168 18.1841 63.4202 18.4333H66.4177C66.3143 17.4117 66.2626 16.3901 66.2626 15.3685V9.88688ZM63.1876 15.4433C62.8 15.9915 62.0765 16.44 60.9912 16.44C59.6992 16.44 59.0531 15.7423 59.0531 14.6709C59.0531 13.2506 60.1126 12.7274 62.7483 12.7274H63.1876V15.4433Z" fill="black"/>
<path d="M76.3579 18.4333H79.8464L74.9109 11.7805L79.2521 5.90021H76.1512L71.81 11.7805V5.90021H68.735V18.4333H71.81V12.3785L76.3579 18.4333Z" fill="black"/>
<path d="M90.1557 8.24238V5.90021H79.8454V8.24238H83.463V18.4333H86.538V8.24238H90.1557Z" fill="black"/>
<path d="M91.9762 5.90021V18.4333H94.7153L99.4183 10.6842V18.4333H102.39V5.90021H99.6508L94.9479 13.6493V5.90021H91.9762Z" fill="black"/>
<path d="M112.595 18.4333H116.084L111.148 11.7805L115.489 5.90021H112.388L108.047 11.7805V5.90021H104.972V18.4333H108.047V12.3785L112.595 18.4333Z" fill="black"/>
<path d="M118.789 22.2954C121.657 22.2954 122.717 20.327 123.595 17.7605L127.652 5.90021H124.681L121.812 15.3187L118.944 5.90021H115.714L120.184 18.9815C119.849 19.5795 119.358 19.9532 118.505 19.9532C117.936 19.9532 117.445 19.7788 117.109 19.4549V21.8718C117.109 21.8718 117.575 22.2954 118.789 22.2954Z" fill="black"/>
<path d="M139.905 18.4333H142.902L142.85 5.90021H138.638L135.822 14.2473L133.289 5.90021H128.819V18.4333H131.429V9.06463L134.245 18.4333H136.752L139.905 9.06463V18.4333Z" fill="black"/>
<path fill-rule="evenodd" clip-rule="evenodd" d="M11.9263 23.001C18.5131 23.001 23.8527 17.8523 23.8527 11.501C23.8527 5.1497 18.5131 0.000976562 11.9263 0.000976562C5.3396 0.000976562 0 5.1497 0 11.501C0 17.8523 5.3396 23.001 11.9263 23.001ZM12.3609 6.68369H13.4261V18.0918H15.81V4.8985H12.3482C8.86105 4.8985 7.02236 6.63478 7.02236 9.17807C7.02236 11.2078 8.02413 12.4061 9.8121 13.641L6.70534 18.104H9.29219L12.754 13.1153L11.5493 12.3327C10.0911 11.379 9.38096 10.6331 9.38096 9.04357C9.38096 7.63742 10.4081 6.68369 12.3609 6.68369Z" fill="black"/>
</svg>
