<svg width="31" height="29" viewBox="0 0 31 29" fill="none" xmlns="http://www.w3.org/2000/svg">
<path d="M30.181 0.542438C29.8627 0.270947 29.479 0.09315 29.0704 0.0278969C28.6619 -0.0373563 28.2438 0.0123664 27.8605 0.171794L1.41197 11.159C0.984578 11.3397 0.620708 11.6499 0.368669 12.0484C0.116629 12.447 -0.0116597 12.915 0.000832917 13.3903C0.0133255 13.8656 0.166009 14.3258 0.438613 14.7097C0.711218 15.0936 1.09085 15.3832 1.52711 15.5398L7.23399 17.5784L10.3266 28.0992C10.3325 28.1205 10.3517 28.1341 10.3605 28.1539C10.3924 28.2378 10.4389 28.3151 10.4978 28.3818C10.5873 28.4846 10.7028 28.5598 10.8314 28.599C10.8462 28.6051 10.8565 28.6187 10.8713 28.6218H10.8801L10.8846 28.6233C10.9988 28.6486 11.1174 28.6423 11.2285 28.6051C11.2403 28.602 11.2521 28.602 11.2654 28.5975C11.3721 28.5589 11.4686 28.4955 11.5474 28.4121C11.5562 28.4015 11.571 28.4 11.5798 28.3909L16.0275 23.3386L22.5182 28.5109C22.9124 28.8283 23.398 29 23.8985 29C24.982 29 25.9164 28.2192 26.1393 27.1301L30.9546 2.7982C31.0362 2.38514 31.0074 1.95701 30.8712 1.55947C30.735 1.16193 30.4964 0.809899 30.181 0.540919V0.542438ZM11.94 19.5759L10.8964 24.7968L8.71901 17.387L19.5172 11.5995L12.1408 19.1916C12.0386 19.2966 11.9688 19.4303 11.94 19.5759ZM24.6926 26.8247C24.6649 26.9625 24.6033 27.0906 24.5136 27.1967C24.4239 27.3029 24.3091 27.3835 24.1804 27.4308C24.0548 27.4806 23.9188 27.4958 23.7858 27.475C23.6527 27.4543 23.5273 27.3982 23.4217 27.3124L16.3907 21.7086C16.2437 21.5919 16.0593 21.5364 15.8744 21.5533C15.6894 21.5702 15.5175 21.6582 15.3928 21.7998L12.2972 25.3103L13.3394 20.1045L23.9516 9.1827C24.0759 9.05439 24.1515 8.88459 24.1648 8.70396C24.1781 8.52332 24.1283 8.34373 24.0242 8.19761C23.9202 8.05148 23.7688 7.94844 23.5974 7.90707C23.426 7.86571 23.2459 7.88874 23.0895 7.97203L7.79198 16.1718L2.00982 14.1028C1.85651 14.0507 1.7228 13.9508 1.62729 13.8168C1.53178 13.6829 1.47922 13.5216 1.47692 13.3555C1.46957 13.1879 1.51308 13.0221 1.60143 12.8811C1.68978 12.7401 1.81858 12.6309 1.96996 12.5686L28.4141 1.58146C28.5496 1.52221 28.6985 1.50305 28.844 1.52613C28.9895 1.54921 29.1259 1.61361 29.2378 1.71209C29.349 1.80474 29.4331 1.92738 29.4805 2.06633C29.528 2.20528 29.5369 2.35506 29.5064 2.49895L24.6926 26.8263V26.8247Z" fill="black"/>
</svg>
