<svg width="48" height="48" viewBox="0 0 48 48" fill="none" xmlns="http://www.w3.org/2000/svg">
<g clip-path="url(#clip0_422_13347)">
<path d="M0 23.04C0 12.1788 0 6.74826 3.37413 3.37413C6.74826 0 12.1788 0 23.04 0H24.96C35.8212 0 41.2517 0 44.6259 3.37413C48 6.74826 48 12.1788 48 23.04V24.96C48 35.8212 48 41.2517 44.6259 44.6259C41.2517 48 35.8212 48 24.96 48H23.04C12.1788 48 6.74826 48 3.37413 44.6259C0 41.2517 0 35.8212 0 24.96V23.04Z" fill="#0077FF"/>
<path d="M25.54 34.5806C14.6 34.5806 8.3601 27.0806 8.1001 14.6006H13.5801C13.7601 23.7606 17.8 27.6406 21 28.4406V14.6006H26.1602V22.5006C29.3202 22.1606 32.6398 18.5606 33.7598 14.6006H38.9199C38.0599 19.4806 34.4599 23.0806 31.8999 24.5606C34.4599 25.7606 38.5601 28.9006 40.1201 34.5806H34.4399C33.2199 30.7806 30.1802 27.8406 26.1602 27.4406V34.5806H25.54Z" fill="white"/>
</g>
<defs>
<clipPath id="clip0_422_13347">
<rect width="48" height="48" fill="white"/>
</clipPath>
</defs>
</svg>
